#tb 0: 1/25
0,          1,          1,        1,   152064, 0xf772f152
0,          2,          2,        1,   152064, 0xc416d300
0,          4,          4,        1,   152064, 0xc2275c94
0,          6,          6,        1,   152064, 0x1bd35645
0,          7,          7,        1,   152064, 0x60327bf5
0,          9,          9,        1,   152064, 0x7f5541bd
0,         11,         11,        1,   152064, 0x52e5ebad
0,         12,         12,        1,   152064, 0xb8e5c1f3
0,         13,         13,        1,   152064, 0x2b4e3653
0,         14,         14,        1,   152064, 0x9a8f8499
0,         15,         15,        1,   152064, 0x32d4e9fb
0,         17,         17,        1,   152064, 0x0bc73d7a
0,         19,         19,        1,   152064, 0xb58a8b87
0,         21,         21,        1,   152064, 0xddbc5468
0,         23,         23,        1,   152064, 0xcfa30b64
0,         24,         24,        1,   152064, 0xad411f36
0,         26,         26,        1,   152064, 0x2f8c4d9b
0,         28,         28,        1,   152064, 0xc8523359
0,         29,         29,        1,   152064, 0x86be9861
0,         30,         30,        1,   152064, 0x7518d731
0,         32,         32,        1,   152064, 0x425fbfab
0,         34,         34,        1,   152064, 0x4f00250d
0,         36,         36,        1,   152064, 0x12b40617
0,         38,         38,        1,   152064, 0x65ff925d
0,         40,         40,        1,   152064, 0xc76a94c9
0,         41,         41,        1,   152064, 0x640170d5
0,         43,         43,        1,   152064, 0xd338a090
0,         44,         44,        1,   152064, 0xce715174
0,         46,         46,        1,   152064, 0x7bded195
0,         48,         48,        1,   152064, 0x09e7d3b9
0,         50,         50,        1,   152064, 0x651e1518
0,         51,         51,        1,   152064, 0x03cadc5f
0,         52,         52,        1,   152064, 0x08906919
0,         54,         54,        1,   152064, 0x3303ebe0
0,         56,         56,        1,   152064, 0xa28676c5
0,         58,         58,        1,   152064, 0x3900ecaf
0,         60,         60,        1,   152064, 0xeb795a05
0,         61,         61,        1,   152064, 0x870034df
0,         63,         63,        1,   152064, 0x69b0527a
0,         64,         64,        1,   152064, 0xb2b314f9
0,         66,         66,        1,   152064, 0x1a44ea1a
0,         67,         67,        1,   152064, 0xe6eaec87
0,         68,         68,        1,   152064, 0xd9ad818e
0,         69,         69,        1,   152064, 0x9c7ff76e
0,         70,         70,        1,   152064, 0x74c45abb
0,         71,         71,        1,   152064, 0x2f4fa5c6
0,         73,         73,        1,   152064, 0x19620702
0,         75,         75,        1,   152064, 0xfc9601f3
0,         77,         77,        1,   152064, 0x33e0d8e7
0,         78,         78,        1,   152064, 0xdf7f2a80
